<?xml version="1.0" standalone="no"?>
<!DOCTYPE svg PUBLIC "-//W3C//DTD SVG 20010904//EN"
 "http://www.w3.org/TR/2001/REC-SVG-20010904/DTD/svg10.dtd">
<svg version="1.0" xmlns="http://www.w3.org/2000/svg"
 width="640.000000pt" height="640.000000pt" viewBox="0 0 640.000000 640.000000"
 preserveAspectRatio="xMidYMid meet">

<g transform="translate(0.000000,640.000000) scale(0.100000,-0.100000)"
fill="#000000" stroke="none">
<path d="M0 3200 l0 -3200 3200 0 3200 0 0 3200 0 3200 -3200 0 -3200 0 0
-3200z m6385 0 l0 -3185 -3185 0 -3185 0 -3 3175 c-1 1746 0 3181 3 3188 3 10
646 12 3187 10 l3183 -3 0 -3185z"/>
<path d="M2940 6269 c-448 -32 -922 -189 -1334 -441 -351 -215 -738 -601 -941
-938 -21 -36 -45 -72 -51 -80 -30 -37 -177 -347 -222 -470 -69 -187 -96 -283
-131 -460 -94 -483 -70 -973 70 -1436 37 -124 52 -165 114 -314 296 -711 915
-1311 1654 -1601 613 -241 1304 -269 1936 -78 72 21 146 45 165 53 19 8 71 29
115 46 366 147 728 396 1023 704 345 362 601 818 723 1289 70 272 92 456 93
757 0 297 -18 453 -84 720 -144 581 -453 1091 -915 1509 -74 67 -230 188 -305
237 -25 16 -47 32 -50 35 -8 10 -189 113 -276 157 -490 248 -1021 353 -1584
311z m626 -262 c212 -35 310 -59 500 -122 129 -43 178 -64 344 -147 664 -334
1163 -925 1383 -1638 80 -259 116 -512 117 -807 0 -112 -4 -203 -9 -203 -22 0
-486 306 -515 339 -7 9 -35 57 -62 108 -39 75 -65 110 -141 184 -51 51 -93 96
-93 101 0 5 -23 54 -50 110 -46 91 -86 145 -205 274 -5 6 -25 28 -43 49 l-34
38 -102 -102 c-84 -83 -110 -117 -141 -181 -37 -77 -41 -81 -156 -164 -64 -47
-121 -86 -126 -85 -4 0 -38 36 -75 79 -65 75 -68 80 -68 130 0 44 -6 60 -36
101 -19 26 -70 117 -113 201 l-78 152 -50 14 c-49 13 -51 16 -126 135 -69 110
-100 146 -312 362 l-235 239 -62 -59 c-34 -33 -141 -137 -238 -231 -96 -94
-211 -202 -255 -240 -44 -38 -82 -71 -85 -74 -3 -3 -36 -32 -75 -65 -88 -75
-87 -73 -170 -175 -38 -47 -78 -94 -88 -105 -10 -11 -86 -102 -169 -202 l-152
-182 -41 57 c-22 31 -72 104 -110 160 -66 98 -100 134 -227 235 l-47 37 -55
-67 c-55 -69 -95 -106 -265 -248 -53 -45 -125 -119 -170 -175 -142 -180 -263
-302 -465 -469 -18 -16 -18 -13 -12 94 78 1227 961 2251 2166 2510 198 43 336
54 600 50 160 -2 289 -9 346 -18z m-394 -1034 c9 -10 17 -23 19 -30 2 -7 92
-101 200 -210 108 -109 204 -213 213 -231 30 -57 -1 -70 -55 -23 -36 32 -169
114 -175 109 -2 -2 13 -36 34 -75 20 -40 34 -75 30 -79 -4 -4 -42 20 -84 52
-116 89 -207 154 -215 154 -5 0 -9 -33 -11 -72 -2 -58 -6 -73 -20 -76 -18 -4
-33 34 -44 113 -3 28 -11 58 -16 68 -12 24 -46 21 -84 -8 -18 -14 -82 -48
-143 -75 -183 -82 -205 -78 -89 16 39 33 101 85 137 117 36 31 100 86 142 122
42 35 88 82 103 105 30 45 36 48 58 23z m-309 -530 c3 -5 10 -53 16 -108 16
-134 28 -196 58 -283 l25 -72 -50 -103 c-96 -194 -105 -225 -107 -375 -2 -103
-7 -142 -20 -173 -18 -38 -37 -50 -50 -29 -14 22 -23 253 -16 386 8 140 8 141
51 225 35 67 46 102 55 174 10 74 10 95 -1 117 -33 65 5 296 39 241z m588
-236 c31 -23 99 -75 151 -114 52 -40 100 -73 106 -73 14 0 15 36 3 98 -5 23
-5 45 -1 47 9 6 83 -73 141 -150 51 -68 109 -182 149 -294 32 -89 37 -96 90
-135 34 -25 66 -58 80 -84 13 -23 52 -86 88 -140 60 -89 176 -311 168 -320 -3
-3 -120 83 -206 153 -71 57 -271 272 -320 345 -42 63 -54 68 -130 61 -65 -6
-59 -30 109 -413 11 -27 16 -48 11 -48 -13 0 -119 85 -158 128 -44 47 -58 76
-66 135 -8 66 -33 116 -61 123 -12 3 -40 1 -61 -5 -90 -25 -151 -9 -172 46
-19 48 -45 235 -46 319 0 71 3 86 28 129 24 41 28 55 23 96 -3 27 -15 70 -26
95 -12 25 -19 50 -16 54 9 14 56 -8 116 -53z m-1953 -94 c86 -97 202 -255 202
-276 0 -3 -24 19 -54 49 -30 30 -59 54 -65 54 -7 0 -11 -24 -11 -61 0 -76 -16
-75 -43 4 -23 70 -33 71 -131 22 -39 -19 -71 -35 -73 -35 -2 0 -3 18 -3 40 0
22 -3 40 -6 40 -11 0 -77 -42 -127 -82 -51 -39 -67 -46 -67 -27 0 15 139 149
210 202 30 23 61 50 68 59 22 29 43 48 55 48 6 0 26 -17 45 -37z m3302 -20
c23 -26 62 -88 88 -138 34 -65 63 -106 109 -150 42 -41 73 -83 97 -131 77
-157 49 -165 -61 -17 -41 54 -124 133 -141 133 -6 0 3 -34 19 -76 32 -84 32
-84 21 -84 -5 0 -30 29 -56 65 l-48 65 -65 0 c-109 0 -190 -18 -228 -51 -18
-16 -35 -29 -39 -29 -10 0 -7 57 5 105 10 38 19 48 69 80 l59 37 12 76 c11 67
17 82 52 119 22 24 45 43 52 43 8 0 32 -21 55 -47z m-3237 -561 c34 -35 77
-73 96 -84 l34 -21 18 22 c30 37 24 75 -18 123 l-38 42 51 -30 c29 -16 79 -50
113 -76 61 -48 61 -49 185 -302 148 -304 145 -296 112 -296 -32 0 -78 46 -175
173 -41 53 -79 97 -85 97 -11 0 -49 -56 -80 -117 -20 -40 -45 -35 -86 18 -81
101 -135 102 -325 4 -150 -78 -204 -100 -218 -86 -14 14 26 73 105 159 91 98
116 143 138 254 11 51 25 111 31 133 7 23 8 63 4 100 l-6 60 41 -55 c22 -30
68 -83 103 -118z m3566 -149 c114 -172 122 -179 205 -169 49 7 58 4 116 -30
90 -53 264 -170 279 -188 11 -13 11 -17 0 -21 -67 -23 -154 -57 -204 -80 -91
-43 -126 -39 -229 26 -147 92 -209 129 -267 159 -66 34 -85 67 -76 135 5 36 1
60 -23 119 -49 123 -43 124 66 15 l82 -82 -19 104 c-10 57 -19 107 -19 112 0
23 25 -5 89 -100z m-1914 -737 c516 -86 692 -99 791 -58 114 46 481 76 669 53
118 -14 398 -60 404 -67 2 -2 2 -6 0 -8 -5 -5 -201 -21 -499 -41 -223 -15
-489 -45 -605 -68 -41 -8 -60 -17 -60 -27 0 -22 121 -39 555 -81 203 -19 185
-32 -65 -49 -388 -25 -832 -74 -900 -100 -91 -34 117 -69 720 -120 738 -62
921 -86 852 -113 -25 -9 -117 -17 -562 -47 -567 -38 -560 -38 -830 -61 -449
-38 -486 -57 -197 -98 75 -11 274 -34 442 -51 512 -51 610 -65 617 -87 6 -17
-59 -22 -382 -33 -725 -24 -690 -44 230 -135 462 -45 643 -73 652 -101 5 -16
-39 -23 -247 -39 -517 -39 -2960 -112 -2960 -88 0 12 38 16 385 43 309 23 646
56 733 71 64 11 78 23 39 33 -56 14 -494 43 -1012 66 -289 13 -588 37 -656 51
-29 6 -49 16 -49 24 0 15 29 22 225 55 152 25 180 33 180 50 0 27 -90 43 -447
81 -65 7 -118 16 -118 20 0 13 151 18 685 24 544 5 705 11 705 25 0 9 -101 24
-320 45 -413 42 -510 72 -300 95 52 5 217 17 365 25 149 8 308 20 355 25 47 5
86 10 88 10 1 0 2 6 2 14 0 30 -134 49 -835 121 -612 63 -719 75 -808 91 -128
23 -125 32 18 49 28 3 354 10 725 15 371 6 691 14 710 18 33 8 34 9 10 15 -32
8 -174 22 -480 47 -597 49 -760 71 -760 100 0 27 100 37 790 80 478 30 619 43
666 60 33 13 22 28 -27 36 -21 4 -39 10 -39 13 0 8 108 47 150 55 51 10 191
-4 395 -38z"/>
</g>
</svg>
